<svg width="0" height="0" style="position:absolute"><symbol viewBox="0 0 512 512" id="barcode-solid" xmlns="http://www.w3.org/2000/svg"><!--! Font Awesome Pro 6.1.1 by @fontawesome - https://fontawesome.com License - https://fontawesome.com/license (Commercial License) Copyright 2022 Fonticons, Inc.--><path d="M40 32c13.25 0 24 10.75 24 24v400c0 13.3-10.75 24-24 24H24c-13.25 0-24-10.7-24-24V56c0-13.25 10.75-24 24-24h16zm88 16v416c0 8.8-7.2 16-16 16s-16-7.2-16-16V48c0-8.84 7.2-16 16-16s16 7.16 16 16zm72-16c13.3 0 24 10.75 24 24v400c0 13.3-10.7 24-24 24h-16c-13.3 0-24-10.7-24-24V56c0-13.25 10.7-24 24-24h16zm96 0c13.3 0 24 10.75 24 24v400c0 13.3-10.7 24-24 24h-16c-13.3 0-24-10.7-24-24V56c0-13.25 10.7-24 24-24h16zm152 24c0-13.25 10.7-24 24-24h16c13.3 0 24 10.75 24 24v400c0 13.3-10.7 24-24 24h-16c-13.3 0-24-10.7-24-24V56zm-64-8c0-8.84 7.2-16 16-16s16 7.16 16 16v416c0 8.8-7.2 16-16 16s-16-7.2-16-16V48z"/></symbol><symbol viewBox="0 0 512 512" id="bars-staggered-solid" xmlns="http://www.w3.org/2000/svg"><!--! Font Awesome Pro 6.1.1 by @fontawesome - https://fontawesome.com License - https://fontawesome.com/license (Commercial License) Copyright 2022 Fonticons, Inc.--><path d="M0 96c0-17.67 14.33-32 32-32h384c17.7 0 32 14.33 32 32 0 17.7-14.3 32-32 32H32c-17.67 0-32-14.3-32-32zm64 160c0-17.7 14.33-32 32-32h384c17.7 0 32 14.3 32 32s-14.3 32-32 32H96c-17.67 0-32-14.3-32-32zm352 192H32c-17.67 0-32-14.3-32-32s14.33-32 32-32h384c17.7 0 32 14.3 32 32s-14.3 32-32 32z"/></symbol></svg>